<svg xmlns="http://www.w3.org/2000/svg" viewBox="0 0 232 232"><defs><style>.cls-1{fill:none;stroke:#292929;stroke-linecap:round;stroke-linejoin:round;stroke-width:10px;}</style></defs><g id="Layer_2" data-name="Layer 2"><g id="Layer_1-2" data-name="Layer 1"><path class="cls-1" d="M189.75,5H42.25A37.25,37.25,0,0,0,5,42.25v147.5A37.25,37.25,0,0,0,42.25,227h81.34V142.43c0-1.41,0-1.41-1.39-1.41-8.79,0-17.59,0-26.38,0-1,0-1.19-.29-1.19-1.22q.06-15.59,0-31.18c0-.9.23-1.15,1.14-1.14,8.87,0,17.74,0,26.6,0,1,0,1.24-.3,1.24-1.27,0-8.57-.09-17.15,0-25.72a47.16,47.16,0,0,1,4.9-20.92c5-9.82,13-16,23.45-19.07,6.83-2,13.82-2.1,20.85-1.89,5.92.18,11.83.48,17.73,1,1.87.17,1.88.15,1.88,2.06q0,13.31,0,26.6c0,1.64.2,1.47-1.43,1.48-6.39.07-12.79-.15-19.18.15a20.65,20.65,0,0,0-4.61.76c-5.18,1.42-7.94,4.92-8.72,10.13a36.68,36.68,0,0,0-.39,5.54c0,6.65,0,13.3,0,19.95,0,1,.31,1.17,1.22,1.17,10.25,0,20.5,0,30.74,0,1.08,0,1.22.3,1.09,1.29-1,7.63-2,15.26-3,22.89-.36,2.85-.77,5.69-1.07,8.54-.1.9-.62.8-1.21.8H160.15c-2,0-2,0-2,2.07V227h31.64A37.25,37.25,0,0,0,227,189.75V42.25A37.25,37.25,0,0,0,189.75,5Z"/></g></g></svg>