<svg xmlns="http://www.w3.org/2000/svg" viewBox="0 0 231.31 231.37"><defs><style>.cls-1{fill:#292929;}</style></defs><g id="Layer_2" data-name="Layer 2"><g id="Layer_1-2" data-name="Layer 1"><path class="cls-1" d="M115.57.14c22.2,0,44.4-.38,66.59.11C203.61.73,218.65,11.59,227.5,31a43.51,43.51,0,0,1,3.76,18.14c0,44.39.14,88.79-.06,133.18-.11,27-22.37,48.94-49.38,49q-66.06.15-132.12,0A49.61,49.61,0,0,1,.1,181.79Q-.09,115.73.1,49.67A49.52,49.52,0,0,1,49.34.18C71.41,0,93.49.14,115.57.14Zm106.52,116V50.23c-.17-22.76-18-40.83-40.67-40.89Q115.71,9.18,50,9.34A40.58,40.58,0,0,0,9.26,50.15q-.13,65.54,0,131.06a40.7,40.7,0,0,0,41,40.93q65.35.09,130.71,0a41.87,41.87,0,0,0,9.07-1c19.13-4.38,32-20.52,32-40.19C222.13,159.33,222.09,137.72,222.09,116.12Z"/><path class="cls-1" d="M179.93,115.84a64.27,64.27,0,1,1-64.15-64.37A64.13,64.13,0,0,1,179.93,115.84Zm-9.21-.12a55.06,55.06,0,1,0-55.14,55.08A55,55,0,0,0,170.72,115.72Z"/><path class="cls-1" d="M199.25,45.22a13.19,13.19,0,1,1-13.38-13.06A13.33,13.33,0,0,1,199.25,45.22Zm-9.34.17a3.84,3.84,0,0,0-7.67-.28,3.92,3.92,0,0,0,3.88,4.11A3.87,3.87,0,0,0,189.91,45.39Z"/></g></g></svg>