<svg xmlns="http://www.w3.org/2000/svg" viewBox="0 0 237 237"><defs><style>.cls-1{fill:none;stroke:#292929;stroke-miterlimit:10;stroke-width:10px;}</style></defs><g id="Layer_2" data-name="Layer 2"><g id="Layer_1-2" data-name="Layer 1"><path class="cls-1" d="M190.41,5H46.59A41.59,41.59,0,0,0,5,46.59V190.41A41.59,41.59,0,0,0,46.59,232H190.41A41.59,41.59,0,0,0,232,190.41V46.59A41.59,41.59,0,0,0,190.41,5ZM70.78,197.88q-15.08-.1-30.14,0c-1.1,0-1.51-.21-1.51-1.44q.06-52.36,0-104.74c0-1.21.39-1.45,1.51-1.45q15.13.06,30.29,0c1.38,0,1.58.46,1.58,1.69q0,26.15,0,52.29c0,17.29,0,34.57,0,51.85C72.52,197.42,72.27,197.89,70.78,197.88ZM55.87,75.61A19.46,19.46,0,1,1,74.76,51.28,19.45,19.45,0,0,1,55.87,75.61ZM196.5,197.87q-15.08-.08-30.14,0c-1.44,0-1.89-.28-1.88-1.83q.08-27.69,0-55.39a40.4,40.4,0,0,0-1.87-13.09c-2.27-6.65-6.79-10.13-13.79-10.55a22.76,22.76,0,0,0-11.39,1.85c-4.41,2.11-7,5.75-8.53,10.25-1.68,4.92-2,10-2,15.16q-.06,25.92,0,51.84c0,1.47-.42,1.77-1.81,1.76q-15-.09-30,0c-1.25,0-1.54-.36-1.54-1.57q.06-26.15,0-52.29c0-17.33,0-34.66,0-52,0-1.42.35-1.8,1.78-1.79,9.55.07,19.1,0,28.66,0,1.21,0,1.6.3,1.58,1.55-.08,4,0,8.08,0,12.11,0,.36-.22.88.29,1s.53-.34.7-.62c5.51-9,13.66-14.15,23.9-15.94a48.21,48.21,0,0,1,26,2.42c8.93,3.44,14.57,10.1,17.73,19,2.93,8.28,3.76,16.89,3.8,25.58.1,20.33,0,40.67.1,61C198.08,197.63,197.68,197.87,196.5,197.87Z"/></g></g></svg>