<svg xmlns="http://www.w3.org/2000/svg" viewBox="0 0 402.31 133.29"><defs><style>.cls-1{fill:#292929;}</style></defs><g id="Layer_2" data-name="Layer 2"><g id="Layer_1-2" data-name="Layer 1"><path class="cls-1" d="M91.37,59.67H76V18.75L51.23,59.67H40.14L15.34,18.75V59.67H0V0H20.71l25,42.11L70.66,0H91.37Z"/><path class="cls-1" d="M154,47H118.3l-6.39,12.7H95L125.8,0h20.72l30.85,59.67h-17Zm-5.71-11.43L136.2,11.34,124,35.54Z"/><path class="cls-1" d="M253.32,29.83c0,20.29-13.56,29.84-29,29.84H181V0h43.29C239.76,0,253.32,9.55,253.32,29.83Zm-15.35,0c0-14.49-7.84-17-19.43-17H196.38V46.8h22.16C230.13,46.8,238,44.33,238,29.83Z"/><path class="cls-1" d="M238.16,85.65h-29v46.79H193.83V85.65h-29V72.78h73.31Z"/><path class="cls-1" d="M322.45,72.78v59.66H307.11V109.09H258.52v23.35H243.18V72.78h15.34V96.13h48.59V72.78Z"/><path class="cls-1" d="M365.06,71.92c23.78,0,35.72,9,37.25,26.26h-15.6c-1.45-9.63-8.86-13.38-21.65-13.38-15.59,0-22.16,5.54-22.16,17.73s6.65,17.89,22.16,17.89c12.7,0,20.2-3.83,21.65-13.55h15.6c-1.53,17.3-13.47,26.42-37.25,26.42-26.25,0-37.5-10.91-37.5-30.76S338.81,71.92,365.06,71.92Z"/><path class="cls-1" d="M125.85,102v12.11H57.66V102Z"/></g></g></svg>