<svg xmlns="http://www.w3.org/2000/svg" viewBox="0 0 470.72 117.75"><defs><style>.cls-1{fill:#292929;}</style></defs><g id="Layer_2" data-name="Layer 2"><g id="Layer_1-2" data-name="Layer 1"><path class="cls-1" d="M133,0,93.41,77H66.35L26.75,0H49L79.88,62.37,110.79,0Z"/><path class="cls-1" d="M231,38.5c0,26.18-17.49,38.5-37.4,38.5H137.74V0h55.88C213.53,0,231,12.32,231,38.5Zm-19.8,0c0-18.7-10.12-21.89-25.08-21.89h-28.6V60.39h28.6C201.1,60.39,211.22,57.2,211.22,38.5Z"/><path class="cls-1" d="M258,16.61V36.19h55V52.91H258V77h-19.8V0h81.4V16.61Z"/><path class="cls-1" d="M444,77h-19.8V24.2l-32,52.8h-14.3l-32-52.8V77h-19.8V0h26.73L385,54.34,417.25,0H444Z"/><path class="cls-1" d="M18.56,94.35l-8,18.2H8L0,94.35H2.81l6.55,15,6.6-15Z"/><path class="cls-1" d="M20.58,95.65a1.53,1.53,0,0,1-.48-1.14,1.59,1.59,0,0,1,.48-1.16,1.64,1.64,0,0,1,1.21-.48,1.68,1.68,0,0,1,1.21.46,1.49,1.49,0,0,1,.48,1.13A1.61,1.61,0,0,1,23,95.64a1.78,1.78,0,0,1-2.42,0Zm0,3.12H23v13.78h-2.5Z"/><path class="cls-1" d="M40.2,106.49H29a4.3,4.3,0,0,0,1.59,2.93,5.22,5.22,0,0,0,3.4,1.1,5.13,5.13,0,0,0,4-1.66l1.37,1.61A6,6,0,0,1,37,112.14a8.16,8.16,0,0,1-3.11.57,8.07,8.07,0,0,1-3.87-.9,6.4,6.4,0,0,1-2.62-2.51,7.68,7.68,0,0,1,0-7.25,6.34,6.34,0,0,1,2.47-2.51,7,7,0,0,1,3.55-.9,6.88,6.88,0,0,1,3.52.9,6.29,6.29,0,0,1,2.42,2.51,7.62,7.62,0,0,1,.87,3.69C40.25,105.93,40.23,106.18,40.2,106.49Zm-9.77-4.65A4.38,4.38,0,0,0,29,104.7h8.84a4.49,4.49,0,0,0-1.42-2.85,4.67,4.67,0,0,0-6,0Z"/><path class="cls-1" d="M51.45,111.75a3.62,3.62,0,0,1-1.35.71,5.48,5.48,0,0,1-1.66.25,4.42,4.42,0,0,1-3.23-1.12,4.27,4.27,0,0,1-1.14-3.2v-7.56H41.73V98.77h2.34v-3h2.5v3h4v2.06h-4v7.46a2.41,2.41,0,0,0,.55,1.71,2.1,2.1,0,0,0,1.6.6,2.94,2.94,0,0,0,2-.65Z"/><path class="cls-1" d="M66,100.16a6,6,0,0,1,1.55,4.46v7.93h-2.5v-7.64a4.24,4.24,0,0,0-1-3,3.64,3.64,0,0,0-2.76-1,4.27,4.27,0,0,0-3.19,1.18A4.59,4.59,0,0,0,57,105.45v7.1H54.47V98.77h2.39v2.08a4.89,4.89,0,0,1,2-1.64,7.16,7.16,0,0,1,2.93-.57A5.7,5.7,0,0,1,66,100.16Z"/><path class="cls-1" d="M81.57,100.05a5.39,5.39,0,0,1,1.53,4.18v8.32H80.73v-1.82A4,4,0,0,1,79,112.2a6.77,6.77,0,0,1-2.74.51,5.72,5.72,0,0,1-3.71-1.12,3.84,3.84,0,0,1-.06-5.86,6.49,6.49,0,0,1,4.21-1.11H80.6v-.49a3.15,3.15,0,0,0-.94-2.47,3.94,3.94,0,0,0-2.75-.86,7.18,7.18,0,0,0-2.39.4,6.15,6.15,0,0,0-2,1.08l-1-1.87a7.5,7.5,0,0,1,2.55-1.31,10.42,10.42,0,0,1,3.14-.46A6.2,6.2,0,0,1,81.57,100.05Zm-2.48,10.1a3.69,3.69,0,0,0,1.51-1.81v-1.92H76.75c-2.11,0-3.17.71-3.17,2.13a1.94,1.94,0,0,0,.81,1.64,3.72,3.72,0,0,0,2.23.59A4.68,4.68,0,0,0,79.09,110.15Z"/><path class="cls-1" d="M109.08,100.15a6,6,0,0,1,1.52,4.47v7.93h-2.49v-7.64a4.33,4.33,0,0,0-.93-3,3.39,3.39,0,0,0-2.64-1,3.93,3.93,0,0,0-3,1.18,4.73,4.73,0,0,0-1.12,3.39v7.1H97.92v-7.64a4.33,4.33,0,0,0-.93-3,3.39,3.39,0,0,0-2.64-1,3.93,3.93,0,0,0-3,1.18,4.73,4.73,0,0,0-1.12,3.39v7.1h-2.5V98.77h2.39v2.06a4.92,4.92,0,0,1,2-1.63,6.67,6.67,0,0,1,2.78-.56,6.12,6.12,0,0,1,2.86.65,4.59,4.59,0,0,1,1.93,1.9,5.23,5.23,0,0,1,2.17-1.87,7.05,7.05,0,0,1,3.13-.68A5.61,5.61,0,0,1,109.08,100.15Z"/><path class="cls-1" d="M116.86,93.61a1.77,1.77,0,0,1,.48,1.26,3.94,3.94,0,0,1-.08.77,8.6,8.6,0,0,1-.34,1.08l-1.25,3.64H114l1-3.88a1.62,1.62,0,0,1-.8-.61,1.68,1.68,0,0,1-.29-1,1.71,1.71,0,0,1,.49-1.27,1.69,1.69,0,0,1,1.25-.5A1.6,1.6,0,0,1,116.86,93.61Z"/><path class="cls-1" d="M121.18,112.25a7.21,7.21,0,0,1-2.44-1.15l1-2a7.55,7.55,0,0,0,2.21,1,9.11,9.11,0,0,0,2.63.39c2.18,0,3.27-.62,3.27-1.87a1.19,1.19,0,0,0-.44-1,2.76,2.76,0,0,0-1.1-.53c-.45-.12-1.07-.24-1.89-.38a17.71,17.71,0,0,1-2.72-.6,4.08,4.08,0,0,1-1.8-1.14,3.15,3.15,0,0,1-.76-2.26,3.55,3.55,0,0,1,1.56-3,7,7,0,0,1,4.19-1.13,11.7,11.7,0,0,1,2.75.34,7.61,7.61,0,0,1,2.27.91l-1.07,2a7.16,7.16,0,0,0-4-1.1,4.7,4.7,0,0,0-2.42.52,1.59,1.59,0,0,0-.83,1.38,1.33,1.33,0,0,0,.47,1.07,2.93,2.93,0,0,0,1.16.57c.46.12,1.1.26,1.93.42a20.74,20.74,0,0,1,2.7.61,3.93,3.93,0,0,1,1.75,1.1,3.07,3.07,0,0,1,.73,2.19,3.43,3.43,0,0,1-1.6,3,7.55,7.55,0,0,1-4.36,1.11A11.35,11.35,0,0,1,121.18,112.25Z"/><path class="cls-1" d="M143.47,96.61V103h9.12v2.23h-9.12v7.36h-2.6V94.35h12.84v2.26Z"/><path class="cls-1" d="M165.92,100.05a5.42,5.42,0,0,1,1.52,4.18v8.32h-2.37v-1.82a3.94,3.94,0,0,1-1.78,1.47,6.73,6.73,0,0,1-2.74.51,5.74,5.74,0,0,1-3.71-1.12,3.84,3.84,0,0,1-.06-5.86,6.51,6.51,0,0,1,4.21-1.11h3.95v-.49a3.18,3.18,0,0,0-.93-2.47,4,4,0,0,0-2.76-.86,7.27,7.27,0,0,0-2.39.4,6.25,6.25,0,0,0-2,1.08l-1-1.87a7.5,7.5,0,0,1,2.55-1.31,10.48,10.48,0,0,1,3.15-.46A6.23,6.23,0,0,1,165.92,100.05Zm-2.49,10.1a3.63,3.63,0,0,0,1.51-1.81v-1.92h-3.85c-2.11,0-3.17.71-3.17,2.13a1.94,1.94,0,0,0,.81,1.64,3.74,3.74,0,0,0,2.23.59A4.65,4.65,0,0,0,163.43,110.15Z"/><path class="cls-1" d="M172.77,112.25a7.27,7.27,0,0,1-2.45-1.15l1-2a7.67,7.67,0,0,0,2.21,1,9.16,9.16,0,0,0,2.63.39c2.18,0,3.28-.62,3.28-1.87a1.2,1.2,0,0,0-.45-1,2.76,2.76,0,0,0-1.1-.53c-.44-.12-1.07-.24-1.89-.38a17.28,17.28,0,0,1-2.71-.6,4.06,4.06,0,0,1-1.81-1.14,3.19,3.19,0,0,1-.75-2.26,3.55,3.55,0,0,1,1.56-3,7,7,0,0,1,4.18-1.13,11.85,11.85,0,0,1,2.76.34,7.55,7.55,0,0,1,2.26.91l-1.07,2a7.13,7.13,0,0,0-4-1.1,4.65,4.65,0,0,0-2.42.52,1.57,1.57,0,0,0-.83,1.38,1.32,1.32,0,0,0,.46,1.07,3,3,0,0,0,1.16.57c.46.12,1.11.26,1.94.42a20.54,20.54,0,0,1,2.69.61,3.93,3.93,0,0,1,1.75,1.1,3.07,3.07,0,0,1,.73,2.19,3.43,3.43,0,0,1-1.6,3,7.49,7.49,0,0,1-4.35,1.11A11.3,11.3,0,0,1,172.77,112.25Z"/><path class="cls-1" d="M196.62,100.16a6,6,0,0,1,1.55,4.46v7.93h-2.5v-7.64a4.24,4.24,0,0,0-1-3,3.63,3.63,0,0,0-2.75-1,4.28,4.28,0,0,0-3.2,1.18,4.62,4.62,0,0,0-1.17,3.39v7.1h-2.5V93.26h2.5v7.46a5.1,5.1,0,0,1,2-1.53,6.92,6.92,0,0,1,2.82-.55A5.7,5.7,0,0,1,196.62,100.16Z"/><path class="cls-1" d="M202.84,95.65a1.53,1.53,0,0,1-.48-1.14,1.59,1.59,0,0,1,.48-1.16,1.64,1.64,0,0,1,1.21-.48,1.69,1.69,0,0,1,1.21.46,1.49,1.49,0,0,1,.48,1.13,1.61,1.61,0,0,1-.48,1.18,1.78,1.78,0,0,1-2.42,0Zm0,3.12h2.49v13.78H202.8Z"/><path class="cls-1" d="M212.26,111.8a6.64,6.64,0,0,1-2.56-2.51,7.6,7.6,0,0,1,0-7.25,6.55,6.55,0,0,1,2.56-2.5,8,8,0,0,1,7.37,0,6.45,6.45,0,0,1,2.55,2.5,7.6,7.6,0,0,1,0,7.25,6.55,6.55,0,0,1-2.55,2.51,7.92,7.92,0,0,1-7.37,0Zm6.07-1.89A4.31,4.31,0,0,0,220,108.2a5.66,5.66,0,0,0,0-5.07,4.25,4.25,0,0,0-1.65-1.71,5.08,5.08,0,0,0-4.75,0,4.3,4.3,0,0,0-1.67,1.71,5.57,5.57,0,0,0,0,5.07,4.36,4.36,0,0,0,1.67,1.71,4.93,4.93,0,0,0,4.75,0Z"/><path class="cls-1" d="M238.09,100.16a6,6,0,0,1,1.55,4.46v7.93h-2.5v-7.64a4.24,4.24,0,0,0-1-3,3.63,3.63,0,0,0-2.75-1,4.28,4.28,0,0,0-3.2,1.18,4.62,4.62,0,0,0-1.17,3.39v7.1h-2.5V98.77H229v2.08a5,5,0,0,1,2-1.64,7.19,7.19,0,0,1,2.93-.57A5.7,5.7,0,0,1,238.09,100.16Z"/><path class="cls-1" d="M251.63,94.35h7.67a11,11,0,0,1,5.12,1.15,8.35,8.35,0,0,1,3.47,3.21,9.77,9.77,0,0,1,0,9.49,8.35,8.35,0,0,1-3.47,3.21,11.12,11.12,0,0,1-5.12,1.14h-7.67Zm7.51,15.94a8.47,8.47,0,0,0,3.89-.86,6.18,6.18,0,0,0,2.58-2.4,7.48,7.48,0,0,0,0-7.15A6.2,6.2,0,0,0,263,97.47a8.47,8.47,0,0,0-3.89-.86h-4.91v13.68Z"/><path class="cls-1" d="M272.78,95.65a1.53,1.53,0,0,1-.49-1.14,1.6,1.6,0,0,1,.49-1.16,1.64,1.64,0,0,1,1.21-.48,1.65,1.65,0,0,1,1.2.46,1.49,1.49,0,0,1,.48,1.13A1.64,1.64,0,0,1,274,96.12,1.67,1.67,0,0,1,272.78,95.65Zm0,3.12h2.49v13.78h-2.49Z"/><path class="cls-1" d="M293.17,98.77v11.91c0,2.41-.59,4.19-1.79,5.34a7.42,7.42,0,0,1-5.36,1.73,13,13,0,0,1-3.72-.53,7.36,7.36,0,0,1-2.85-1.52l1.19-1.93a7,7,0,0,0,2.38,1.32,9,9,0,0,0,2.93.48,4.86,4.86,0,0,0,3.57-1.15,4.7,4.7,0,0,0,1.16-3.48v-1.09a5.64,5.64,0,0,1-2.17,1.6,7.35,7.35,0,0,1-2.8.53,7.52,7.52,0,0,1-3.57-.84,6.3,6.3,0,0,1-2.51-2.37,7.07,7.07,0,0,1,0-6.94,6.14,6.14,0,0,1,2.51-2.36,7.64,7.64,0,0,1,3.57-.83,7.32,7.32,0,0,1,2.9.57,5.52,5.52,0,0,1,2.2,1.69V98.77Zm-4.74,10.45a4.25,4.25,0,0,0,1.69-1.59,4.45,4.45,0,0,0,.61-2.33,4.19,4.19,0,0,0-1.33-3.24,5.36,5.36,0,0,0-6.83,0,4.19,4.19,0,0,0-1.33,3.24,4.45,4.45,0,0,0,.61,2.33,4.25,4.25,0,0,0,1.69,1.59,5.08,5.08,0,0,0,2.46.58A5,5,0,0,0,288.43,109.22Z"/><path class="cls-1" d="M298,95.65a1.53,1.53,0,0,1-.48-1.14,1.59,1.59,0,0,1,.48-1.16,1.64,1.64,0,0,1,1.21-.48,1.68,1.68,0,0,1,1.21.46,1.49,1.49,0,0,1,.48,1.13,1.61,1.61,0,0,1-.48,1.18,1.78,1.78,0,0,1-2.42,0Zm0,3.12h2.5v13.78h-2.5Z"/><path class="cls-1" d="M312.93,111.75a3.62,3.62,0,0,1-1.35.71,5.48,5.48,0,0,1-1.66.25,4.42,4.42,0,0,1-3.23-1.12,4.27,4.27,0,0,1-1.14-3.2v-7.56h-2.34V98.77h2.34v-3H308v3h4v2.06h-4v7.46a2.41,2.41,0,0,0,.56,1.71,2.1,2.1,0,0,0,1.6.6,3,3,0,0,0,1.95-.65Z"/><path class="cls-1" d="M325.35,100.05a5.42,5.42,0,0,1,1.52,4.18v8.32H324.5v-1.82a3.94,3.94,0,0,1-1.78,1.47,6.73,6.73,0,0,1-2.74.51,5.74,5.74,0,0,1-3.71-1.12,3.84,3.84,0,0,1-.06-5.86,6.51,6.51,0,0,1,4.21-1.11h3.95v-.49a3.18,3.18,0,0,0-.93-2.47,4,4,0,0,0-2.76-.86,7.27,7.27,0,0,0-2.39.4,6.25,6.25,0,0,0-2,1.08l-1-1.87a7.5,7.5,0,0,1,2.55-1.31,10.48,10.48,0,0,1,3.15-.46A6.23,6.23,0,0,1,325.35,100.05Zm-2.49,10.1a3.63,3.63,0,0,0,1.51-1.81v-1.92h-3.85c-2.11,0-3.17.71-3.17,2.13a1.94,1.94,0,0,0,.81,1.64,3.74,3.74,0,0,0,2.23.59A4.65,4.65,0,0,0,322.86,110.15Z"/><path class="cls-1" d="M331.5,93.26H334v19.29H331.5Z"/><path class="cls-1" d="M363,112.55l0-13.26-6.58,11h-1.2l-6.58-11v13.18h-2.49V94.35h2.13l7.59,12.79,7.49-12.79h2.13l0,18.2Z"/><path class="cls-1" d="M380,100.05a5.38,5.38,0,0,1,1.52,4.18v8.32h-2.36v-1.82a4,4,0,0,1-1.78,1.47,6.82,6.82,0,0,1-2.75.51,5.71,5.71,0,0,1-3.7-1.12,3.57,3.57,0,0,1-1.39-2.94,3.61,3.61,0,0,1,1.32-2.92,6.53,6.53,0,0,1,4.21-1.11h4v-.49a3.19,3.19,0,0,0-.94-2.47,4,4,0,0,0-2.76-.86,7.27,7.27,0,0,0-2.39.4,6.09,6.09,0,0,0-2,1.08l-1-1.87a7.5,7.5,0,0,1,2.55-1.31,10.37,10.37,0,0,1,3.14-.46A6.2,6.2,0,0,1,380,100.05Zm-2.48,10.1a3.74,3.74,0,0,0,1.51-1.81v-1.92h-3.85c-2.12,0-3.17.71-3.17,2.13a2,2,0,0,0,.8,1.64,3.77,3.77,0,0,0,2.24.59A4.68,4.68,0,0,0,377.49,110.15Z"/><path class="cls-1" d="M399.38,98.77v11.91q0,3.61-1.79,5.34a7.42,7.42,0,0,1-5.36,1.73,13,13,0,0,1-3.72-.53,7.41,7.41,0,0,1-2.86-1.52l1.2-1.93a6.91,6.91,0,0,0,2.38,1.32,9,9,0,0,0,2.92.48,4.89,4.89,0,0,0,3.58-1.15,4.7,4.7,0,0,0,1.15-3.48v-1.09a5.49,5.49,0,0,1-2.17,1.6,7.3,7.3,0,0,1-2.79.53,7.59,7.59,0,0,1-3.58-.84,6.43,6.43,0,0,1-2.51-2.37,7.07,7.07,0,0,1,0-6.94,6.27,6.27,0,0,1,2.51-2.36,7.71,7.71,0,0,1,3.58-.83,7.35,7.35,0,0,1,2.9.57A5.49,5.49,0,0,1,397,100.9V98.77Zm-4.74,10.45a4.25,4.25,0,0,0,1.69-1.59,4.55,4.55,0,0,0,.61-2.33,4.19,4.19,0,0,0-1.33-3.24,4.8,4.8,0,0,0-3.4-1.23,4.87,4.87,0,0,0-3.44,1.23,4.22,4.22,0,0,0-1.32,3.24,4.45,4.45,0,0,0,.61,2.33,4.18,4.18,0,0,0,1.69,1.59,5.08,5.08,0,0,0,2.46.58A5,5,0,0,0,394.64,109.22Z"/><path class="cls-1" d="M413.54,100.05a5.42,5.42,0,0,1,1.52,4.18v8.32h-2.37v-1.82a3.94,3.94,0,0,1-1.78,1.47,6.73,6.73,0,0,1-2.74.51,5.74,5.74,0,0,1-3.71-1.12,3.84,3.84,0,0,1-.06-5.86,6.51,6.51,0,0,1,4.21-1.11h3.95v-.49a3.18,3.18,0,0,0-.93-2.47,4,4,0,0,0-2.76-.86,7.27,7.27,0,0,0-2.39.4,6.25,6.25,0,0,0-2,1.08l-1-1.87A7.5,7.5,0,0,1,406,99.1a10.48,10.48,0,0,1,3.15-.46A6.23,6.23,0,0,1,413.54,100.05Zm-2.49,10.1a3.63,3.63,0,0,0,1.51-1.81v-1.92h-3.85c-2.11,0-3.17.71-3.17,2.13a1.94,1.94,0,0,0,.81,1.64,3.74,3.74,0,0,0,2.23.59A4.65,4.65,0,0,0,411.05,110.15Z"/><path class="cls-1" d="M429.9,110.5v2H418.36v-1.61l8.14-10.11h-8V98.77H429.7v1.64l-8.14,10.09Z"/><path class="cls-1" d="M433.27,95.65a1.53,1.53,0,0,1-.48-1.14,1.59,1.59,0,0,1,.48-1.16,1.65,1.65,0,0,1,1.21-.48,1.68,1.68,0,0,1,1.21.46,1.49,1.49,0,0,1,.48,1.13,1.61,1.61,0,0,1-.48,1.18,1.65,1.65,0,0,1-1.21.48A1.68,1.68,0,0,1,433.27,95.65Zm0,3.12h2.5v13.78h-2.5Z"/><path class="cls-1" d="M452,100.16a6,6,0,0,1,1.54,4.46v7.93h-2.49v-7.64a4.24,4.24,0,0,0-1-3,3.66,3.66,0,0,0-2.76-1,4.3,4.3,0,0,0-3.2,1.18,4.62,4.62,0,0,0-1.17,3.39v7.1h-2.49V98.77h2.39v2.08a4.89,4.89,0,0,1,2-1.64,7.14,7.14,0,0,1,2.92-.57A5.73,5.73,0,0,1,452,100.16Z"/><path class="cls-1" d="M470.67,106.49H459.49a4.35,4.35,0,0,0,1.6,2.93,5.19,5.19,0,0,0,3.39,1.1,5.1,5.1,0,0,0,4-1.66l1.38,1.61a6,6,0,0,1-2.33,1.67,8.77,8.77,0,0,1-7-.33,6.38,6.38,0,0,1-2.61-2.51,7.14,7.14,0,0,1-.92-3.64,7.26,7.26,0,0,1,.89-3.61,6.41,6.41,0,0,1,2.47-2.51,7,7,0,0,1,3.55-.9,6.92,6.92,0,0,1,3.53.9,6.27,6.27,0,0,1,2.41,2.51,7.62,7.62,0,0,1,.87,3.69A5.82,5.82,0,0,1,470.67,106.49Zm-9.76-4.65a4.39,4.39,0,0,0-1.42,2.86h8.84a4.48,4.48,0,0,0-1.41-2.85,4.67,4.67,0,0,0-6,0Z"/></g></g></svg>